<svg xmlns="http://www.w3.org/2000/svg" xmlns:xlink="http://www.w3.org/1999/xlink" version="1.1" id="Layer_1" x="0px" y="0px" viewBox="0 0 774.9 346.7" style="enable-background:new 0 0 774.9 346.7;" xml:space="preserve">
    <style type="text/css">
        .st0{fill-rule:evenodd;clip-rule:evenodd;}
    </style>
    <path class="st0" fill="#fff" d="M628.9,142.9c-3.7-0.4-7.4-1.6-10.1-4.4c-2.4-2.5-3.8-5.5-4.4-8.9c-0.2-1.1-0.3-2.3-0.3-3.4  c-1.9,3.1-3.9,6.2-6.2,9c-5.9,7.2-12,12-23.1,15.1c-8,2.3-15.7,1.7-17.2-7.1c-0.6-3.6,0-7.5,0.9-11c3-11.4,11.5-20.3,15.2-31.5  c0.8-2.6,2.1-7,1.7-9.7c-0.1-0.7-0.4-1.5-1-2c-0.6-0.4-1.3-0.5-2-0.3c-3.4,0.8-7.9,6-10,8.5c-3,3.6-5.8,7.9-7.8,12.4l-21,48.1  l-18.4,3.2l-7.7,1.3l-6.3,1.1c-7.3,3.2-14.8,3.1-19.3-4.6c-9.7,12.1-22.6,16.7-37.9,11.2c-8.2-3-10.4-11-9.9-19.4l-0.3,0.5  c-5.4,8.3-10.7,16.6-16.1,20.8c-5.3,4.3-12.2,7.6-16.5,8.4c-3.5,0.6-7,0.3-10-1.9c-2.6-1.9-4.3-5-5-9.2c-0.4-2.4-0.4-5.3-0.1-8.6  c-0.3,0.4-0.6,0.8-1,1.2c-4.5,5.4-9.4,10.3-14.6,15c-5.2,4.7-11,8.9-17.4,12.3c-2.6,1.3-5.2,2.5-8,3.5c-2.6,1-5.4,1.7-8.2,2.2  c-1.8,0.3-3.5,0.5-5.3,0.5c-1.8,0.1-3.7,0-5.5-0.2c-11.8-1-17.5-12.1-17-22.1c-8.9,11.8-19.6,22.4-33,29.4c-2.6,1.3-5.2,2.5-8,3.5  c-2.6,1-5.4,1.7-8.2,2.2c-1.8,0.3-3.5,0.5-5.3,0.5c-1.8,0.1-3.7,0-5.5-0.2c-9.2-0.8-14.7-7.7-16.4-15.4l0,0  c-4.1,8.9-12.4,18-22,21.2c-7.4,2.6-16.3,2.5-19.6-4.7c-14,16.5-41.9,21.6-47.9,4l0,0c-18.4,14.5-54.6,29-79.1,24.3  c-19.4,15.6-48.6,22.2-61.5,6.5c-4-4.9-3.3-11.6,0.5-16.4c6.5-8.1,15.8-5.3,23.2-4.8c9.1,0.6,17.9,0.3,27.8,0.1  c30.4-46.3,39.8-161.7,109.7-181.4c26.2-7.4,52.4,9.4,46.6,39.9c-6.5,34.3-54.8,71.6-89.4,81.4c-16.8,4.7,2.8-6.3,8.7-10.1  c11.6-7.4,22.4-16.2,31.7-26.6c13.9-15.7,42.6-60.9,27.4-74.6c-13.1-11.8-30.9,16.4-40.4,32.8c-22.5,38.7-51.1,105.6-75.3,137.7  c13.9-0.6,32-5,48.4-10.7c14.8-5.1,17.8-8.4,24.9-21.3c0.8-1.6,1.5-3.2,2.3-4.7c6.5-12.2,12.7-24.6,19-36.9l0.1-0.2l0.3,0  c7.1-1.7,15.8-3.3,22.9-4.5c-8,11.5-15.3,24.5-21,37.2c-2.3,5.2-5,10.8-6.3,16.3c-5.9,18.6,11.6,15.4,18.3,5  c12.1-18.7,20.8-42.5,30.4-62.2l24.1-4.2c-4.3,6.4-9.6,15.2-12.7,22.2c-4.5,9.9-8,18.4-12.2,28.4c-1.6,4.1-4.1,16.4,3.7,15  c2-0.4,4.1-1.6,5.7-2.8c2.6-1.9,4.8-4.6,6.6-7.3c1.8-2.7,3.9-7.1,6-13c0.5-1.7,1-3.4,1.6-5.1c0.2-0.4,0.3-0.9,0.5-1.3v0  c3.1-7.7,7.9-14.7,12.8-21.3c8.5-11.2,38.6-36.1,55.9-21.1c7.4,6.3,2.2,17.3-1.7,23c-3.1,4.5-11.8,15.7-10.8,2.4  c0.4-5.3,0.4-9.2,0.3-14.5c-0.1-9.6-8.8-8.6-13.9-3.2c-2.9,3-5.5,6.4-7.7,9.9c-4.7,7.9-34,54.5-3.1,49.1c3.8-0.7,7.4-2.1,10.6-4  c3.8-2.2,7.2-4.7,10.4-7.6c9.3-8.2,21-24.4,30-37.3c2.2-3.5,4.6-6.9,7.1-10.2c8.5-11.2,38.6-36.1,55.9-21.1c7.4,6.3,2.2,17.3-1.7,23  c-3.1,4.5-11.8,15.7-10.8,2.4c0.4-5.3,0.4-9.2,0.3-14.5c-0.1-9.6-8.8-8.6-13.9-3.2c-2.9,3-5.4,6.4-7.7,9.9  c-4.7,7.9-34,54.5-3.1,49.1c3.8-0.7,7.4-2.1,10.6-4c3.8-2.2,7.3-4.7,10.5-7.6c11.8-10.5,19.1-19.1,28.1-33.2l0,0  c5.4-9.6,12.9-18.4,15.7-31.7l25.8-4.6c0.9,5.1-5.7,15.8-8.3,19.6c-3.6,5.3-22.1,32.2-14.8,37.7c0.9,0.7,2,0.9,3.3,0.7  c6.9-1.2,10.1-9,13.6-14.1c4.9-7.2,8.1-11.7,11.2-16.9l0,0c9.1-18.8,31.4-46.2,54-35.6c1.5,0.8,2.9,2,4.5,2.6l2.9-5.4l20.5-3.5  c0.3,0.1-22.4,50.3-22.8,55.1c-0.6,8.6,4.5,15.5,12.3,9.2c0.6-0.5,1.3-1.1,1.9-1.8c9.8-20.9,18.3-40.7,26.5-66l24-4.4  c-0.4,2.3-0.1,4.3,0.4,6.3c1-1.3,2.1-2.4,3.3-3.5c1.8-1.5,3.7-2.8,5.7-3.8c1.1-0.6,2.2-1.1,3.4-1.5c1.1-0.4,2.3-0.7,3.4-0.9  c3.9-0.7,7.6-0.4,11.3,1.2c3.4,1.5,5.8,3.9,6.9,7.4c0,0.1,0.1,0.3,0.1,0.4l0.2,0.1l0,0.2c0,0.1,0,0.2,0.1,0.4c0,0.1,0,0.2,0.1,0.4  c0.6,3.3-0.1,6.8-1.1,9.9c-1.2,3.9-2.7,7.8-4.4,11.7c-0.6,1.1-1.1,2.3-1.7,3.4c-0.6,1.2-1.1,2.4-1.7,3.6c-2.4,4.7-4.5,7.9-6.8,12.7  c-4.2,8.7-2.1,14.7,5.3,6.3c9.4-10.6,17.2-24,23.6-33.7c2.9-5.3,6.4-10.4,10.2-15.1c5.6-7,12.2-13.2,19.9-18c2.5-1.5,5.2-2.9,7.9-4  c2.5-1.1,5.2-1.9,7.9-2.3c2.5-0.4,5-0.5,7.6-0.3c2.5,0.2,4.9,0.8,7.2,1.9c2.4,1,4.5,2.5,6,4.6c1.4,2.1,2.3,4.4,2.8,6.9  c0.6,3.5,0.4,7.1-0.3,10.5c-0.8,4.1-2.1,8.1-3.7,11.9c-3.6,8.7-8.7,16.6-14.6,23.8c-5.9,7.2-13,13.6-21.2,18.1  c-2.2,1.1-4.4,2.1-6.7,3c-2.2,0.8-4.4,1.4-6.7,1.8c-1.6,0.3-3.2,0.4-4.8,0.4C632,143.3,630.5,143.1,628.9,142.9L628.9,142.9z   M117.4,330.2l26.6-60.7c92.9-57,240.2-54.3,362.8-71.8c33.5-4.8,70.4-9.3,101.8-20.5c19.5-6.9,37-16.4,52.4-29  c12.7-10.3,20.6-21.2,29.8-34.1c6.3-8.7,7.1-6.8,1.5,4.1c-6.3,12.5-13.6,24.8-22.4,35.6c-16.1,19.7-37.7,35.9-64.3,47.6  c-30.6,13.4-67.2,20-100.5,26.1C393.3,247.6,245,257.2,117.4,330.2 M749.6,82.1c6.8,10.6,7.5,25.9-1.9,36.2  c-8.3,9-20.6,14.5-32.5,13.9c-2.6-0.2-5.2-0.6-7.6-1.5c-10.4-4.3-8.5-7.6-2.2-14.4c1-1,3.8-4.2,5-1.8c3.9,8.3,9.8,16.6,19.2,5.7  c4.3-5.9,2.2-12.6-0.8-18.2c-3.8-7-10.6-11-14.7-17.6c-2.9-4.8-3.8-10.4-0.6-15.6c4.9-7.9,11.5-15.4,17.8-21.1  c4.6-4.2,8.7-4.1,15.2-6.1c0.8-0.2,5.2-1.3,7.9-1.5c0.4,0,0.7,0,1,0c1.8,0.1,0,2-0.6,2.5C738.8,56.5,735.9,58.8,749.6,82.1   M697.5,34.8c-0.6-0.8-1.2-0.8-1.4,0c-1.2,3.5-3.2,6.7-6.3,9.4c-0.6,0.5-0.5,0.9,0.1,1.3c8.8,5.7,10.5,13.2,11.9,22.8  c0.3,1.4,0.5,2.6,1.3,0.8C706.8,57.1,704.2,45.1,697.5,34.8 M432,68.5c-7.3,1.3-12.2,8.2-11,15.6c1.3,7.3,8.2,12.2,15.6,11  c7.3-1.3,12.2-8.2,11-15.6C446.3,72.2,439.4,67.2,432,68.5 M499,108.9c2.6-11.3-4.9-12.8-12.2-5.2c-10.4,10.8-18.2,26.8-21.2,41.4  c-3.6,17.1,6,20.4,15,6.9c0.8-1.4,1.6-2.8,2.4-4.2c0.8-1.5,1.6-2.9,2.4-4.4C490.5,132.1,496.1,121,499,108.9 M662.3,113.7  c0.6-1.1,1.3-2.1,1.9-3.2c2.3-4.2,4.4-8.5,6.2-13c1.8-4.4,3.3-9,4.3-13.7c2.6-12.1-1.6-23.6-12.7-10.5c-3.5,4.1-6.5,8.6-9.2,13.2  c-3.8,6.5-24.7,48.9-7.7,45.3c2.9-0.6,5.2-2.3,7.2-4.3C656,123.5,659.4,118.4,662.3,113.7"/>
</svg>